<svg xmlns="http://www.w3.org/2000/svg" width="218.7" height="72.5" viewBox="0 0 218.7 72.5"> <path d="M202.6,71.5h-5.9V62.6h6.1a6.083,6.083,0,0,0,6-6V44.3a14.648,14.648,0,0,1-6,1.3h-.1a14.937,14.937,0,0,1-14.9-14.9V8.8h8.9V30.6a6.083,6.083,0,0,0,6,6h.1a6.083,6.083,0,0,0,6-6V8.8h8.9V30.6h-.1v26a14.937,14.937,0,0,1-14.9,14.9ZM177.3,49.6a14.5,14.5,0,0,1-10.4,4.3h-.1A14.937,14.937,0,0,1,151.9,39V23.7A14.937,14.937,0,0,1,166.8,8.8h.1a14.648,14.648,0,0,1,6,1.3,14.9,14.9,0,0,1,8.9,13.6V39a6.133,6.133,0,0,0,5.9,6v8.9A15.1,15.1,0,0,1,177.3,49.6ZM160.8,23.7V39a6.083,6.083,0,0,0,6,6h.1a6.083,6.083,0,0,0,6-6V23.7a6.083,6.083,0,0,0-6-6h-.1A6.083,6.083,0,0,0,160.8,23.7ZM130.9,53.9a15.1,15.1,0,0,1-10.4-4.3,14.5,14.5,0,0,1-10.4,4.3H110A14.937,14.937,0,0,1,95.1,39V.1H104V39a6.083,6.083,0,0,0,6,6h.1a6.083,6.083,0,0,0,6-6V17.8H125V39a6.083,6.083,0,0,0,6,6h.1a6.083,6.083,0,0,0,6-6V.1h8.8V39A14.937,14.937,0,0,1,131,53.9Zm-56.4,0A14.938,14.938,0,0,1,59.6,39V23.7a14.95,14.95,0,0,1,29.9,0V39A14.937,14.937,0,0,1,74.6,53.9ZM68.4,23.7V39a6.083,6.083,0,0,0,6,6h.1a6.083,6.083,0,0,0,6-6V23.7a6.083,6.083,0,0,0-6-6h-.1A6.083,6.083,0,0,0,68.4,23.7ZM38.8,53.8V8.9h8.9v1.3a13.2,13.2,0,0,1,6-1.3A14.217,14.217,0,0,1,61,10.8L55.2,18a5.9,5.9,0,0,0-1.4-.2h-.1a6.083,6.083,0,0,0-6,6v30ZM0,53.6V.1A7.579,7.579,0,0,1,1.5,0H15A14.937,14.937,0,0,1,29.9,14.9V30.1A14.937,14.937,0,0,1,15,45h-.1a14,14,0,0,1-5.8-1.2v9.8ZM9,13.4c-.2.5-.1,16.7-.1,16.7a7.72,7.72,0,0,0,.2,1.5,6.092,6.092,0,0,0,5.8,4.5H15a6.083,6.083,0,0,0,6-6V15a6.083,6.083,0,0,0-6-6H9Z" transform="translate(0.5 0.5)" fill="#ff7000" stroke="rgba(0,0,0,0)" stroke-miterlimit="10" stroke-width="1"></path> </svg>